<?xml version="1.0" encoding="utf-8"?>
<svg viewBox="0 0 511.992 511.992" height="32" style="enable-background:new 0 0 511.992 511.992;" xmlns="http://www.w3.org/2000/svg">
  <g transform="matrix(-1, 0, 0, 1, 511.992004, 0)">
    <g>
      <path d="M511.189,251.924c-0.533-1.323-1.323-2.496-2.325-3.477L316.885,56.468c-4.16-4.16-10.923-4.16-15.083,0 c-4.16,4.16-4.16,10.923,0,15.083l173.781,173.781H10.667C4.779,245.332,0,250.111,0,255.999c0,5.888,4.779,10.667,10.667,10.667 h464.917L301.803,440.447c-4.16,4.16-4.16,10.923,0,15.083c2.091,2.091,4.821,3.115,7.552,3.115c2.731,0,5.461-1.045,7.552-3.115 l191.979-191.979c0.981-0.981,1.771-2.176,2.325-3.477C512.256,257.471,512.256,254.527,511.189,251.924z"/>
    </g>
  </g>
  <g/>
  <g/>
  <g/>
  <g/>
  <g/>
  <g/>
  <g/>
  <g/>
  <g/>
  <g/>
  <g/>
  <g/>
  <g/>
  <g/>
  <g/>
</svg>
